<svg xmlns="http://www.w3.org/2000/svg" width="50" height="50"><defs><linearGradient id="a" x1="0" x2="50" y1="-.01" y2="50" gradientUnits="userSpaceOnUse"><stop offset="0" stop-color="#802775"/><stop offset="1" stop-color="#dc071d"/></linearGradient></defs><path fill="url(#a)" d="M25 31.92a6.928 6.928 0 01-6.921-6.923 6.928 6.928 0 016.92-6.922c3.813 0 6.915 3.103 6.915 6.922 0 3.82-3.102 6.922-6.914 6.922zm0-12.051a5.134 5.134 0 00-5.128 5.128A5.134 5.134 0 0025 30.125c2.822 0 5.12-2.302 5.12-5.128S27.822 19.87 25 19.87zm-3.884 29.448l-1.543-6.174a19.418 19.418 0 01-3.532-1.498l-5.489 3.295a.9.9 0 01-1.094-.134l-4.264-4.265a.896.896 0 01-.134-1.093l3.295-5.483a18.826 18.826 0 01-1.468-3.53L.682 28.882a.899.899 0 01-.68-.867v-6.026c0-.414.283-.772.68-.87l6.169-1.54c.377-1.214.882-2.4 1.5-3.54l-3.294-5.49a.9.9 0 01.134-1.096l4.258-4.26a.89.89 0 011.097-.134l5.488 3.293a19.1 19.1 0 013.526-1.465L21.11.68c.1-.4.458-.68.869-.68h6.025c.41 0 .772.28.87.68l1.543 6.177a19.9 19.9 0 013.528 1.491L39.44 5.05a.917.917 0 011.094.137l4.258 4.259c.293.29.349.742.137 1.097l-3.295 5.497a19.094 19.094 0 011.462 3.516l6.212 1.557c.4.097.68.458.68.87v6.02c0 .41-.28.771-.68.869l-6.212 1.556a18.875 18.875 0 01-1.458 3.52l3.297 5.493a.897.897 0 01-.136 1.097l-4.258 4.266a.911.911 0 01-1.094.136l-5.495-3.298a19.666 19.666 0 01-3.532 1.498l-1.537 6.173a.899.899 0 01-.872.677l-6.026.004a.899.899 0 01-.87-.677zm-5.091-9.605a.89.89 0 01.449.12 17.67 17.67 0 004.088 1.729c.31.087.547.339.629.651l1.497 5.988 4.623-.003 1.494-5.992a.898.898 0 01.625-.644c1.416-.397 2.79-.98 4.089-1.733a.89.89 0 01.908.007l5.339 3.207 3.272-3.278-3.207-5.334a.905.905 0 01-.01-.912 16.955 16.955 0 001.69-4.067.895.895 0 01.648-.635l6.035-1.514v-4.62l-6.035-1.51a.894.894 0 01-.648-.636c-.381-1.41-.95-2.78-1.69-4.07a.906.906 0 01.01-.909l3.2-5.336-3.268-3.269-5.34 3.204a.875.875 0 01-.907.007 18 18 0 00-4.09-1.73.887.887 0 01-.624-.644l-1.498-5.994h-4.622l-1.508 6.03a.898.898 0 01-.634.647 17.295 17.295 0 00-4.076 1.694.874.874 0 01-.908-.01l-5.333-3.201-3.268 3.272 3.2 5.33c.17.28.17.63.007.912a17.935 17.935 0 00-1.732 4.097.895.895 0 01-.648.627L1.795 22.69v4.623l6.03 1.511a.894.894 0 01.647.635c.384 1.413.95 2.784 1.696 4.074a.895.895 0 01-.01.91l-3.2 5.328 3.272 3.275 5.332-3.203a.88.88 0 01.463-.13z"/></svg>